<svg xmlns="http://www.w3.org/2000/svg" xmlns:svg="http://www.w3.org/2000/svg" xmlns:xlink="http://www.w3.org/1999/xlink" style="fill-rule:evenodd;clip-rule:evenodd;stroke-linejoin:round;stroke-miterlimit:1.41421" id="svg2" width="48" height="48" version="1.1" xml:space="preserve"><metadata id="metadata113"/><rect id="rect3925" width="44" height="44" x="2" y="3" rx="2" ry="2" style="opacity:.15;fill:#000;fill-opacity:1;stroke:none"/><rect style="opacity:1;fill:#859aa5;fill-opacity:1;stroke:none" id="rect3092" width="44" height="44" x="2" y="2" rx="2" ry="2"/><defs id="defs84"><linearGradient id="linearGradient3813"><stop style="stop-color:#000;stop-opacity:1" id="stop3815" offset="0"/><stop style="stop-color:#000;stop-opacity:0" id="stop3817" offset="1"/></linearGradient><linearGradient id="tag1" x1="0" x2="1" y1="0" y2="0" gradientTransform="matrix(-0.955626,-24.2973,36.2077,-0.641275,115.317,104.307)" gradientUnits="userSpaceOnUse"><stop style="stop-color:#000;stop-opacity:0" id="stop87" offset="0%"/><stop style="stop-color:#000;stop-opacity:.101961" id="stop89" offset="100%"/></linearGradient><linearGradient id="tag2" x1="0" x2="1" y1="0" y2="0" gradientTransform="matrix(0.332337,-24.0301,35.8095,0.223016,114.029,104.039)" gradientUnits="userSpaceOnUse"><stop style="stop-color:#000;stop-opacity:0" id="stop92" offset="0%"/><stop style="stop-color:#000;stop-opacity:.101961" id="stop94" offset="100%"/></linearGradient><linearGradient id="tag3" x1="0" x2="1" y1="0" y2="0" gradientTransform="matrix(-0.0938762,-19.0213,28.3454,-0.0629958,114.455,99.0306)" gradientUnits="userSpaceOnUse"><stop style="stop-color:#000;stop-opacity:0" id="stop97" offset="0%"/><stop style="stop-color:#000;stop-opacity:.101961" id="stop99" offset="100%"/></linearGradient><linearGradient id="tag4" x1="0" x2="1" y1="0" y2="0" gradientTransform="matrix(0.478852,-24.7846,36.934,0.321335,113.831,104.195)" gradientUnits="userSpaceOnUse"><stop style="stop-color:#000;stop-opacity:0" id="stop102" offset="0%"/><stop style="stop-color:#000;stop-opacity:.101961" id="stop104" offset="100%"/></linearGradient><linearGradient id="tag5" x1="0" x2="1" y1="0" y2="0" gradientTransform="matrix(1.62471,-21.8397,175.063,0.202687,-38.8179,77.1599)" gradientUnits="userSpaceOnUse"><stop style="stop-color:#000;stop-opacity:.101961" id="stop107" offset="0%"/><stop style="stop-color:#000;stop-opacity:.101961" id="stop109" offset="100%"/></linearGradient><linearGradient id="linearGradient3094" x1="0" x2="1" y1="0" y2="0" gradientTransform="matrix(-0.955626,-24.2973,36.2077,-0.641275,115.317,104.307)" gradientUnits="userSpaceOnUse" xlink:href="#tag1"/><linearGradient id="linearGradient3096" x1="0" x2="1" y1="0" y2="0" gradientTransform="matrix(0.332337,-24.0301,35.8095,0.223016,114.029,104.039)" gradientUnits="userSpaceOnUse" xlink:href="#tag2"/><linearGradient id="linearGradient3098" x1="0" x2="1" y1="0" y2="0" gradientTransform="matrix(-0.0938762,-19.0213,28.3454,-0.0629958,114.455,99.0306)" gradientUnits="userSpaceOnUse" xlink:href="#tag3"/><linearGradient id="linearGradient3100" x1="0" x2="1" y1="0" y2="0" gradientTransform="matrix(0.478852,-24.7846,36.934,0.321335,113.831,104.195)" gradientUnits="userSpaceOnUse" xlink:href="#tag4"/><linearGradient id="linearGradient3102" x1="0" x2="1" y1="0" y2="0" gradientTransform="matrix(1.62471,-21.8397,175.063,0.202687,-38.8179,77.1599)" gradientUnits="userSpaceOnUse" xlink:href="#tag5"/><linearGradient id="linearGradient3918" x1="0" x2="1" y1="0" y2="0" gradientTransform="matrix(1.62471,-21.8397,175.063,0.202687,-38.8179,77.1599)" gradientUnits="userSpaceOnUse" xlink:href="#tag5"/><linearGradient id="linearGradient3921" x1="0" x2="1" y1="0" y2="0" gradientTransform="matrix(0.2680544,-0.99173641,28.882944,0.00920398,-28.51081,17.484716)" gradientUnits="userSpaceOnUse" xlink:href="#tag5"/><linearGradient id="linearGradient3954" x1="0" x2="1" y1="0" y2="0" gradientTransform="matrix(0.478852,-24.7846,36.934,0.321335,100.39594,95.179381)" gradientUnits="userSpaceOnUse" xlink:href="#tag4"/><linearGradient id="linearGradient3970" x1="0" x2="1" y1="0" y2="0" gradientTransform="matrix(-0.955626,-24.2973,36.2077,-0.641275,115.317,104.307)" gradientUnits="userSpaceOnUse" xlink:href="#tag1"/><linearGradient id="linearGradient3993" x1="0" x2="1" y1="0" y2="0" gradientTransform="matrix(-0.0938762,-19.0213,28.3454,-0.0629958,109.9769,102.03563)" gradientUnits="userSpaceOnUse" xlink:href="#tag3"/><linearGradient id="linearGradient4013" x1="0" x2="1" y1="0" y2="0" gradientTransform="matrix(0.332337,-24.0301,35.8095,0.223016,114.029,104.039)" gradientUnits="userSpaceOnUse" xlink:href="#tag2"/><linearGradient id="linearGradient3038" x1="0" x2="1" y1="0" y2="0" gradientTransform="matrix(-4.0701493,-4.177075,4.1770703,-4.0701442,39.429673,28.700948)" gradientUnits="userSpaceOnUse" xlink:href="#tag4"/><linearGradient id="linearGradient3041" x1="0" x2="1" y1="0" y2="0" gradientTransform="matrix(-4.1492299,-3.9358424,3.9358232,-4.1492113,15.864963,28.552337)" gradientUnits="userSpaceOnUse" xlink:href="#tag1"/><linearGradient id="linearGradient3819" x1="24" x2="31" y1="24" y2="30" gradientTransform="translate(10,0)" gradientUnits="userSpaceOnUse" xlink:href="#linearGradient3813"/><linearGradient id="linearGradient4194" x1=".347" x2=".859" y1="-.657" y2="-.142" gradientTransform="matrix(-0.0938762,-19.0213,28.3454,-0.0629958,109.9769,102.03563)" gradientUnits="userSpaceOnUse" xlink:href="#tag3-0"/><linearGradient id="tag3-0" x1="0" x2="1" y1="0" y2="0" gradientTransform="matrix(-0.0938762,-19.0213,28.3454,-0.0629958,114.455,99.0306)" gradientUnits="userSpaceOnUse"><stop style="stop-color:#000;stop-opacity:0" id="stop97-6" offset="0%"/><stop style="stop-color:#000;stop-opacity:.101961" id="stop99-5" offset="100%"/></linearGradient><linearGradient id="linearGradient3993-8" x1="0" x2="1" y1="0" y2="0" gradientTransform="matrix(-0.0938762,-19.0213,28.3454,-0.0629958,109.9769,102.03563)" gradientUnits="userSpaceOnUse" xlink:href="#tag3-0"/><linearGradient id="linearGradient3064" x1="0" x2="1" y1="0" y2="0" gradientTransform="matrix(-0.0938762,-19.0213,28.3454,-0.0629958,114.455,99.0306)" gradientUnits="userSpaceOnUse"><stop style="stop-color:#000;stop-opacity:0" id="stop3066" offset="0%"/><stop style="stop-color:#000;stop-opacity:.101961" id="stop3068" offset="100%"/></linearGradient><linearGradient id="linearGradient4213" x1=".193" x2="1" y1=".007" y2="0" gradientTransform="matrix(0.332337,-24.0301,35.8095,0.223016,114.029,104.039)" gradientUnits="userSpaceOnUse" xlink:href="#tag2-3"/><linearGradient id="tag2-3" x1="0" x2="1" y1="0" y2="0" gradientTransform="matrix(0.332337,-24.0301,35.8095,0.223016,114.029,104.039)" gradientUnits="userSpaceOnUse"><stop style="stop-color:#000;stop-opacity:0" id="stop92-4" offset="0%"/><stop style="stop-color:#000;stop-opacity:.101961" id="stop94-6" offset="100%"/></linearGradient><linearGradient id="linearGradient4013-5" x1=".289" x2="1" y1=".007" y2="0" gradientTransform="matrix(0.332337,-24.0301,35.8095,0.223016,114.029,104.039)" gradientUnits="userSpaceOnUse" xlink:href="#tag2-3"/><linearGradient id="linearGradient3075" x1="0" x2="1" y1="0" y2="0" gradientTransform="matrix(0.332337,-24.0301,35.8095,0.223016,114.029,104.039)" gradientUnits="userSpaceOnUse"><stop style="stop-color:#000;stop-opacity:0" id="stop3077" offset="0%"/><stop style="stop-color:#000;stop-opacity:.101961" id="stop3079" offset="100%"/></linearGradient><linearGradient id="linearGradient3819-1" x1="27" x2="27" y1="29" y2="25" gradientTransform="translate(10,-3.49684e-7)" gradientUnits="userSpaceOnUse" xlink:href="#tag1-2"/><linearGradient id="tag1-2" x1="0" x2="1" y1="0" y2="0" gradientTransform="matrix(-0.955626,-24.2973,36.2077,-0.641275,115.317,104.307)" gradientUnits="userSpaceOnUse"><stop style="stop-color:#000;stop-opacity:0" id="stop87-5" offset="0%"/><stop style="stop-color:#000;stop-opacity:.101961" id="stop89-4" offset="100%"/></linearGradient><linearGradient id="linearGradient4240" x1=".43" x2=".791" y1="-.275" y2=".106" gradientTransform="matrix(-4.1492299,-3.9358424,3.9358232,-4.1492113,15.864963,28.552337)" gradientUnits="userSpaceOnUse" xlink:href="#tag1-2"/><linearGradient id="linearGradient3086" x1="0" x2="1" y1="0" y2="0" gradientTransform="matrix(-0.955626,-24.2973,36.2077,-0.641275,115.317,104.307)" gradientUnits="userSpaceOnUse"><stop style="stop-color:#000;stop-opacity:0" id="stop3088" offset="0%"/><stop style="stop-color:#000;stop-opacity:.101961" id="stop3090" offset="100%"/></linearGradient><linearGradient id="linearGradient4233" x1=".651" x2="1.032" y1=".721" y2=".36" gradientTransform="matrix(-4.1492299,-3.9358424,3.9358232,-4.1492113,15.864963,28.552337)" gradientUnits="userSpaceOnUse" xlink:href="#tag1-2"/><linearGradient id="linearGradient3093" x1="0" x2="1" y1="0" y2="0" gradientTransform="matrix(-0.955626,-24.2973,36.2077,-0.641275,115.317,104.307)" gradientUnits="userSpaceOnUse"><stop style="stop-color:#000;stop-opacity:0" id="stop3095" offset="0%"/><stop style="stop-color:#000;stop-opacity:.101961" id="stop3097" offset="100%"/></linearGradient><linearGradient id="linearGradient3041-4" x1="-.261" x2=".791" y1=".078" y2=".106" gradientTransform="matrix(-4.1492299,-3.9358424,3.9358232,-4.1492113,15.864963,28.552337)" gradientUnits="userSpaceOnUse" xlink:href="#tag1-2"/><linearGradient id="linearGradient3100-3" x1="0" x2="1" y1="0" y2="0" gradientTransform="matrix(-0.955626,-24.2973,36.2077,-0.641275,115.317,104.307)" gradientUnits="userSpaceOnUse"><stop style="stop-color:#000;stop-opacity:0" id="stop3102" offset="0%"/><stop style="stop-color:#000;stop-opacity:.101961" id="stop3104" offset="100%"/></linearGradient><linearGradient id="linearGradient3117" x1="-.261" x2=".791" y1=".078" y2=".106" gradientTransform="matrix(-4.1492299,-3.9358424,3.9358232,-4.1492113,15.864963,28.552337)" gradientUnits="userSpaceOnUse" xlink:href="#tag1-2"/></defs><path style="fill:#ff5252;fill-opacity:1;stroke:none" id="rect3913" d="M 4 2 C 2.892 2 2 2.892 2 4 L 2 18 L 46 18 L 46 4 C 46 2.892 45.108 2 44 2 L 4 2 z"/><path style="fill:url(#linearGradient3117);fill-rule:evenodd;stroke-linejoin:round;stroke-miterlimit:1.41420996" id="path3958" d="M 12.734375,24 12.685547,24.732422 12,24.771484 12,29 l 3,3 5,-5 -3,-3 -4.265625,0 z"/><path style="fill:url(#linearGradient4233);fill-rule:evenodd;stroke-linejoin:round;stroke-miterlimit:1.41420996" id="path4231" d="M 13,20 12.734375,24 17,24 13,20 z"/><path style="fill:url(#linearGradient4240);fill-rule:evenodd;stroke-linejoin:round;stroke-miterlimit:1.41420996" id="path4236" d="M 11.970348,24.690631 8,25.001953 l 4.001985,4.015851 z"/><g id="g3950" transform="matrix(0,-0.309136,0.21544161,0,11.785032,62.081954)" style="fill:#f2f2f2;fill-opacity:1"><rect style="fill:#f2f2f2;fill-opacity:1" id="rect3952" width="3.235" height="41.775" x="119.954" y="84.547"/></g><path style="fill:url(#linearGradient3819-1);fill-opacity:1;fill-rule:evenodd;stroke:none" id="path3043" d="m 30,25 0,-1 9,0 5,6 -10,0 z"/><path id="path3977" d="m 24,46 0,-16 22,0 0,14 c 0,1.108 -0.892,2 -2,2 z" style="fill:#1de9b6;fill-opacity:1;stroke:none"/><g style="fill-rule:evenodd;stroke-linejoin:round;stroke-miterlimit:1.41420996" id="g3979" transform="matrix(0.111648,-0.111648,0.166378,0.166378,9.3740301,37.5629)"><path style="fill:url(#linearGradient4194)" id="path3981" d="m 77.044747,102.41133 4.29848,-33.026187 13.548436,2.929139 31.204907,21.127886 -5.19416,33.166562 z"/><path id="path4192" d="M 118.72736,128.60769 126.0314,93.295708 94.891663,72.314282 95.330031,60.103649 140.81091,85.101138 137.29681,112.79144 z" style="fill:url(#linearGradient3993-8)"/></g><g id="g3983" transform="matrix(0.25,0,0,0.25,2.5855524,0.27355921)" style="fill:#fff;fill-opacity:1"><g id="g3985" transform="matrix(0,-1.23654,0.923321,0,42.8793,307.233)" style="fill:#fff;fill-opacity:1"><rect style="fill:#fff;fill-opacity:1" id="rect3987" width="3.235" height="38.99" x="129.658" y="72.324"/></g><g id="g3989" transform="matrix(0,-1.23654,0.923321,0,42.8793,317.233)" style="fill:#fff;fill-opacity:1"><rect style="fill:#fff;fill-opacity:1" id="rect3991" width="3.235" height="38.99" x="128.041" y="72.324" ry="0"/></g></g><g style="fill-rule:evenodd;stroke-linejoin:round;stroke-miterlimit:1.41420996" id="g4009" transform="matrix(0.111648,-0.111648,0.166378,0.166378,-14.355072,37.612231)"><path style="fill:url(#linearGradient4013-5)" id="path4011" d="m 93.899143,107.41457 -1.343508,-24.943207 56.427345,0 -1.34351,24.943207 z"/></g><g id="g4003" transform="matrix(0.70710678,-0.70710678,0.70710678,0.70710678,-13.66364,29.012648)" style="fill:#f2f2f2;fill-opacity:1"><g id="g3995" transform="matrix(0.309135,0,0,0.23083025,-27.83151,3.3053374)" style="fill:#f2f2f2;fill-opacity:1"><rect id="rect3997" width="3.235" height="38.99" x="128.832" y="72.324" style="fill:#f2f2f2;fill-opacity:1"/></g><g id="g3999" transform="matrix(0,-0.309135,0.23083025,0,-8.4443115,65.081827)" style="fill:#f2f2f2;fill-opacity:1"><rect id="rect4001" width="3.235" height="39.013" x="129.658" y="71.218" style="fill:#f2f2f2;fill-opacity:1"/></g></g><g style="fill-rule:evenodd;stroke-linejoin:round;stroke-miterlimit:1.41420996" id="g4209" transform="matrix(0.111648,-0.111648,0.166378,0.166378,-14.323585,43.231476)"><path id="path4211" d="m 142.54347,107.2847 0.0215,-24.908414 6.41802,0.09508 0.0215,24.977994 z" style="fill:url(#linearGradient4213)"/></g><g id="g3962" transform="matrix(0.309135,0,0,0.23083025,-27.83151,3.3053374)" style="fill:#f2f2f2;fill-opacity:1"><rect id="rect3964" width="3.235" height="38.99" x="128.832" y="72.324" style="fill:#f2f2f2;fill-opacity:1"/></g><g id="g3966" transform="matrix(0,-0.309135,0.23083025,0,-8.4443115,65.081827)" style="fill:#f2f2f2;fill-opacity:1"><rect id="rect3968" width="3.235" height="39.013" x="129.658" y="71.218" style="fill:#f2f2f2;fill-opacity:1"/></g><rect style="opacity:.15;fill:#000;fill-opacity:1;stroke:none" id="rect3078" width="44" height="1" x="2" y="17"/></svg>